M48
; DRILL file {KiCad (6.0.4)} date Tue Apr 26 18:04:05 2022
; FORMAT={-:-/ absolute / metric / decimal}
; #@! TF.CreationDate,2022-04-26T18:04:05+09:00
; #@! TF.GenerationSoftware,Kicad,Pcbnew,(6.0.4)
; #@! TF.FileFunction,NonPlated,1,2,NPTH
FMAT,2
METRIC
; #@! TA.AperFunction,NonPlated,NPTH,ComponentDrill
T1C1.700
; #@! TA.AperFunction,NonPlated,NPTH,ComponentDrill
T2C3.400
%
G90
G05
T1
X53.5Y-58.5
X53.5Y-75.5
X53.5Y-92.5
X64.5Y-58.5
X64.5Y-75.5
X64.5Y-92.5
X71.5Y-58.5
X71.5Y-75.5
X71.5Y-92.5
X82.5Y-58.5
X82.5Y-75.5
X82.5Y-92.5
X89.5Y-58.5
X89.5Y-75.5
X89.5Y-92.5
X89.5Y-109.5
X100.5Y-58.5
X100.5Y-75.5
X100.5Y-92.5
X100.5Y-109.5
X107.5Y-58.5
X107.5Y-75.5
X107.5Y-92.5
X107.5Y-109.5
X118.5Y-58.5
X118.5Y-75.5
X118.5Y-92.5
X118.5Y-109.5
X125.5Y-58.5
X125.5Y-75.5
X125.5Y-92.5
X125.5Y-109.5
X136.5Y-58.5
X136.5Y-75.5
X136.5Y-92.5
X136.5Y-109.5
X143.5Y-58.5
X143.5Y-75.5
X143.5Y-92.5
X143.5Y-109.5
X154.5Y-58.5
X154.5Y-75.5
X154.5Y-92.5
X154.5Y-109.5
X161.5Y-58.5
X161.5Y-75.5
X161.5Y-92.5
X161.5Y-109.5
X172.5Y-58.5
X172.5Y-75.5
X172.5Y-92.5
X172.5Y-109.5
X179.5Y-58.5
X179.5Y-75.5
X179.5Y-92.5
X179.5Y-109.5
X190.5Y-58.5
X190.5Y-75.5
X190.5Y-92.5
X190.5Y-109.5
X197.5Y-58.5
X197.5Y-75.5
X197.5Y-92.5
X208.5Y-58.5
X208.5Y-75.5
X208.5Y-92.5
X215.5Y-58.5
X215.5Y-75.5
X215.5Y-92.5
X226.5Y-58.5
X226.5Y-75.5
X226.5Y-92.5
T2
X59.0Y-58.5
X59.0Y-75.5
X59.0Y-92.5
X77.0Y-58.5
X77.0Y-75.5
X77.0Y-92.5
X95.0Y-58.5
X95.0Y-75.5
X95.0Y-92.5
X95.0Y-109.5
X113.0Y-58.5
X113.0Y-75.5
X113.0Y-92.5
X113.0Y-109.5
X131.0Y-58.5
X131.0Y-75.5
X131.0Y-92.5
X131.0Y-109.5
X149.0Y-58.5
X149.0Y-75.5
X149.0Y-92.5
X149.0Y-109.5
X167.0Y-58.5
X167.0Y-75.5
X167.0Y-92.5
X167.0Y-109.5
X185.0Y-58.5
X185.0Y-75.5
X185.0Y-92.5
X185.0Y-109.5
X203.0Y-58.5
X203.0Y-75.5
X203.0Y-92.5
X221.0Y-58.5
X221.0Y-75.5
X221.0Y-92.5
T0
M30
