M48
; DRILL file {KiCad (6.0.4)} date Wed Apr 27 19:23:55 2022
; FORMAT={-:-/ absolute / metric / decimal}
; #@! TF.CreationDate,2022-04-27T19:23:55+09:00
; #@! TF.GenerationSoftware,Kicad,Pcbnew,(6.0.4)
; #@! TF.FileFunction,Plated,1,2,PTH
FMAT,2
METRIC
; #@! TA.AperFunction,Plated,PTH,ViaDrill
T1C0.400
; #@! TA.AperFunction,Plated,PTH,ComponentDrill
T2C0.800
; #@! TA.AperFunction,Plated,PTH,ComponentDrill
T3C0.850
; #@! TA.AperFunction,Plated,PTH,ComponentDrill
T4C1.200
; #@! TA.AperFunction,Plated,PTH,ComponentDrill
T5C1.500
%
G90
G05
T1
X69.8Y-100.7
X69.8Y-111.1
X78.0Y-101.0
X79.9Y-94.6
X84.0Y-95.5
X85.0Y-101.8
X85.937Y-114.663
X106.0Y-84.5
X135.0Y-85.851
X135.0Y-89.0
X138.0Y-77.5
X142.0Y-74.0
T2
X138.0Y-101.002
X140.0Y-55.0
X140.0Y-57.0
X140.0Y-61.0
X140.0Y-63.0
X140.0Y-101.002
X142.0Y-101.002
T3
X104.0Y-105.78
X104.0Y-108.32
X104.0Y-110.86
X104.0Y-113.4
T4
X54.0Y-62.3
X54.0Y-79.3
X54.0Y-96.3
X59.0Y-64.4
X59.0Y-81.4
X59.0Y-98.4
X72.0Y-62.3
X72.0Y-79.3
X72.0Y-96.3
X77.0Y-64.4
X77.0Y-81.4
X77.0Y-98.4
X90.0Y-62.3
X90.0Y-79.3
X90.0Y-96.3
X90.0Y-113.3
X95.0Y-64.4
X95.0Y-81.4
X95.0Y-98.4
X95.0Y-115.4
X108.0Y-62.3
X108.0Y-79.3
X108.0Y-96.3
X108.0Y-113.3
X113.0Y-64.4
X113.0Y-81.4
X113.0Y-98.4
X113.0Y-115.4
X126.0Y-62.3
X126.0Y-79.3
X126.0Y-96.3
X126.0Y-113.3
X131.0Y-64.4
X131.0Y-81.4
X131.0Y-98.4
X131.0Y-115.4
X144.0Y-62.3
X144.0Y-79.3
X144.0Y-96.3
X144.0Y-113.3
X149.0Y-64.4
X149.0Y-81.4
X149.0Y-98.4
X149.0Y-115.4
X162.0Y-62.3
X162.0Y-79.3
X162.0Y-96.3
X162.0Y-113.3
X167.0Y-64.4
X167.0Y-81.4
X167.0Y-98.4
X167.0Y-115.4
X180.0Y-62.3
X180.0Y-79.3
X180.0Y-96.3
X180.0Y-113.3
X185.0Y-64.4
X185.0Y-81.4
X185.0Y-98.4
X185.0Y-115.4
X198.0Y-62.3
X198.0Y-79.3
X198.0Y-96.3
X203.0Y-64.4
X203.0Y-81.4
X203.0Y-98.4
X216.0Y-62.3
X216.0Y-79.3
X216.0Y-96.3
X221.0Y-64.4
X221.0Y-81.4
X221.0Y-98.4
T5
X135.9Y-101.002
X144.1Y-101.002
T0
M30
