%TF.GenerationSoftware,KiCad,Pcbnew,(6.0.4)*%
%TF.CreationDate,2022-04-27T19:23:48+09:00*%
%TF.ProjectId,hatchet36lp_pcb,68617463-6865-4743-9336-6c705f706362,rev?*%
%TF.SameCoordinates,Original*%
%TF.FileFunction,Soldermask,Top*%
%TF.FilePolarity,Negative*%
%FSLAX46Y46*%
G04 Gerber Fmt 4.6, Leading zero omitted, Abs format (unit mm)*
G04 Created by KiCad (PCBNEW (6.0.4)) date 2022-04-27 19:23:48*
%MOMM*%
%LPD*%
G01*
G04 APERTURE LIST*
%ADD10C,1.700000*%
%ADD11C,3.400000*%
%ADD12C,2.000000*%
%ADD13R,1.350000X1.350000*%
%ADD14O,1.350000X1.350000*%
%ADD15R,1.700000X1.700000*%
%ADD16O,1.700000X1.700000*%
%ADD17C,2.200000*%
%ADD18R,1.500000X1.500000*%
%ADD19C,1.500000*%
G04 APERTURE END LIST*
D10*
%TO.C,SW26*%
X154500000Y-92500000D03*
D11*
X149000000Y-92500000D03*
D10*
X143500000Y-92500000D03*
D12*
X149000000Y-98400000D03*
X144000000Y-96300000D03*
%TD*%
D11*
%TO.C,SW25*%
X131000000Y-92500000D03*
D10*
X125500000Y-92500000D03*
X136500000Y-92500000D03*
D12*
X131000000Y-98400000D03*
X126000000Y-96300000D03*
%TD*%
D10*
%TO.C,SW14*%
X107500000Y-75500000D03*
X118500000Y-75500000D03*
D11*
X113000000Y-75500000D03*
D12*
X113000000Y-81400000D03*
X108000000Y-79300000D03*
%TD*%
D11*
%TO.C,SW30*%
X221000000Y-92500000D03*
D10*
X215500000Y-92500000D03*
X226500000Y-92500000D03*
D12*
X221000000Y-98400000D03*
X216000000Y-96300000D03*
%TD*%
D10*
%TO.C,SW11*%
X64500000Y-75500000D03*
X53500000Y-75500000D03*
D11*
X59000000Y-75500000D03*
D12*
X59000000Y-81400000D03*
X54000000Y-79300000D03*
%TD*%
D11*
%TO.C,SW35*%
X167000000Y-109500000D03*
D10*
X172500000Y-109500000D03*
X161500000Y-109500000D03*
D12*
X167000000Y-115400000D03*
X162000000Y-113300000D03*
%TD*%
D10*
%TO.C,SW36*%
X179500000Y-109500000D03*
D11*
X185000000Y-109500000D03*
D10*
X190500000Y-109500000D03*
D12*
X185000000Y-115400000D03*
X180000000Y-113300000D03*
%TD*%
D10*
%TO.C,SW22*%
X82500000Y-92500000D03*
X71500000Y-92500000D03*
D11*
X77000000Y-92500000D03*
D12*
X77000000Y-98400000D03*
X72000000Y-96300000D03*
%TD*%
D11*
%TO.C,SW2*%
X77000000Y-58500000D03*
D10*
X82500000Y-58500000D03*
X71500000Y-58500000D03*
D12*
X77000000Y-64400000D03*
X72000000Y-62300000D03*
%TD*%
D10*
%TO.C,SW1*%
X64500000Y-58500000D03*
D11*
X59000000Y-58500000D03*
D10*
X53500000Y-58500000D03*
D12*
X59000000Y-64400000D03*
X54000000Y-62300000D03*
%TD*%
D10*
%TO.C,SW7*%
X161500000Y-58500000D03*
D11*
X167000000Y-58500000D03*
D10*
X172500000Y-58500000D03*
D12*
X167000000Y-64400000D03*
X162000000Y-62300000D03*
%TD*%
D11*
%TO.C,SW33*%
X131000000Y-109500000D03*
D10*
X125500000Y-109500000D03*
X136500000Y-109500000D03*
D12*
X131000000Y-115400000D03*
X126000000Y-113300000D03*
%TD*%
D10*
%TO.C,SW32*%
X107500000Y-109500000D03*
D11*
X113000000Y-109500000D03*
D10*
X118500000Y-109500000D03*
D12*
X113000000Y-115400000D03*
X108000000Y-113300000D03*
%TD*%
D10*
%TO.C,SW20*%
X215500000Y-75500000D03*
X226500000Y-75500000D03*
D11*
X221000000Y-75500000D03*
D12*
X221000000Y-81400000D03*
X216000000Y-79300000D03*
%TD*%
D10*
%TO.C,SW27*%
X172500000Y-92500000D03*
D11*
X167000000Y-92500000D03*
D10*
X161500000Y-92500000D03*
D12*
X167000000Y-98400000D03*
X162000000Y-96300000D03*
%TD*%
D10*
%TO.C,SW16*%
X154500000Y-75500000D03*
X143500000Y-75500000D03*
D11*
X149000000Y-75500000D03*
D12*
X149000000Y-81400000D03*
X144000000Y-79300000D03*
%TD*%
D10*
%TO.C,SW19*%
X208500000Y-75500000D03*
X197500000Y-75500000D03*
D11*
X203000000Y-75500000D03*
D12*
X203000000Y-81400000D03*
X198000000Y-79300000D03*
%TD*%
D11*
%TO.C,SW34*%
X149000000Y-109500000D03*
D10*
X154500000Y-109500000D03*
X143500000Y-109500000D03*
D12*
X149000000Y-115400000D03*
X144000000Y-113300000D03*
%TD*%
D10*
%TO.C,SW3*%
X100500000Y-58500000D03*
D11*
X95000000Y-58500000D03*
D10*
X89500000Y-58500000D03*
D12*
X95000000Y-64400000D03*
X90000000Y-62300000D03*
%TD*%
D10*
%TO.C,SW17*%
X161500000Y-75500000D03*
D11*
X167000000Y-75500000D03*
D10*
X172500000Y-75500000D03*
D12*
X167000000Y-81400000D03*
X162000000Y-79300000D03*
%TD*%
D11*
%TO.C,SW15*%
X131000000Y-75500000D03*
D10*
X136500000Y-75500000D03*
X125500000Y-75500000D03*
D12*
X131000000Y-81400000D03*
X126000000Y-79300000D03*
%TD*%
D10*
%TO.C,SW29*%
X208500000Y-92500000D03*
X197500000Y-92500000D03*
D11*
X203000000Y-92500000D03*
D12*
X203000000Y-98400000D03*
X198000000Y-96300000D03*
%TD*%
D11*
%TO.C,SW6*%
X149000000Y-58500000D03*
D10*
X154500000Y-58500000D03*
X143500000Y-58500000D03*
D12*
X149000000Y-64400000D03*
X144000000Y-62300000D03*
%TD*%
D10*
%TO.C,SW23*%
X100500000Y-92500000D03*
D11*
X95000000Y-92500000D03*
D10*
X89500000Y-92500000D03*
D12*
X95000000Y-98400000D03*
X90000000Y-96300000D03*
%TD*%
D10*
%TO.C,SW13*%
X89500000Y-75500000D03*
D11*
X95000000Y-75500000D03*
D10*
X100500000Y-75500000D03*
D12*
X95000000Y-81400000D03*
X90000000Y-79300000D03*
%TD*%
D11*
%TO.C,SW28*%
X185000000Y-92500000D03*
D10*
X190500000Y-92500000D03*
X179500000Y-92500000D03*
D12*
X185000000Y-98400000D03*
X180000000Y-96300000D03*
%TD*%
D11*
%TO.C,SW24*%
X113000000Y-92500000D03*
D10*
X107500000Y-92500000D03*
X118500000Y-92500000D03*
D12*
X113000000Y-98400000D03*
X108000000Y-96300000D03*
%TD*%
D11*
%TO.C,SW18*%
X185000000Y-75500000D03*
D10*
X190500000Y-75500000D03*
X179500000Y-75500000D03*
D12*
X185000000Y-81400000D03*
X180000000Y-79300000D03*
%TD*%
D11*
%TO.C,SW4*%
X113000000Y-58500000D03*
D10*
X118500000Y-58500000D03*
X107500000Y-58500000D03*
D12*
X113000000Y-64400000D03*
X108000000Y-62300000D03*
%TD*%
D10*
%TO.C,SW12*%
X82500000Y-75500000D03*
X71500000Y-75500000D03*
D11*
X77000000Y-75500000D03*
D12*
X77000000Y-81400000D03*
X72000000Y-79300000D03*
%TD*%
D10*
%TO.C,SW5*%
X136500000Y-58500000D03*
D11*
X131000000Y-58500000D03*
D10*
X125500000Y-58500000D03*
D12*
X131000000Y-64400000D03*
X126000000Y-62300000D03*
%TD*%
D11*
%TO.C,SW9*%
X203000000Y-58500000D03*
D10*
X208500000Y-58500000D03*
X197500000Y-58500000D03*
D12*
X203000000Y-64400000D03*
X198000000Y-62300000D03*
%TD*%
D11*
%TO.C,SW8*%
X185000000Y-58500000D03*
D10*
X179500000Y-58500000D03*
X190500000Y-58500000D03*
D12*
X185000000Y-64400000D03*
X180000000Y-62300000D03*
%TD*%
D10*
%TO.C,SW21*%
X53500000Y-92500000D03*
X64500000Y-92500000D03*
D11*
X59000000Y-92500000D03*
D12*
X59000000Y-98400000D03*
X54000000Y-96300000D03*
%TD*%
D11*
%TO.C,SW31*%
X95000000Y-109500000D03*
D10*
X100500000Y-109500000D03*
X89500000Y-109500000D03*
D12*
X95000000Y-115400000D03*
X90000000Y-113300000D03*
%TD*%
D10*
%TO.C,SW10*%
X226500000Y-58500000D03*
D11*
X221000000Y-58500000D03*
D10*
X215500000Y-58500000D03*
D12*
X221000000Y-64400000D03*
X216000000Y-62300000D03*
%TD*%
D13*
%TO.C,J1*%
X140000000Y-63000000D03*
D14*
X140000000Y-61000000D03*
%TD*%
D13*
%TO.C,J2*%
X140000000Y-57000000D03*
D14*
X140000000Y-55000000D03*
%TD*%
D15*
%TO.C,J3*%
X104000000Y-105780000D03*
D16*
X104000000Y-108320000D03*
X104000000Y-110860000D03*
D10*
X104000000Y-113400000D03*
%TD*%
D17*
%TO.C,SW38*%
X144100000Y-101002500D03*
X135900000Y-101002500D03*
D18*
X142000000Y-101002500D03*
D19*
X140000000Y-101002500D03*
X138000000Y-101002500D03*
%TD*%
M02*
